<svg width="26" height="24" viewBox="0 0 26 24" fill="none" xmlns="http://www.w3.org/2000/svg">
<path fill-rule="evenodd" clip-rule="evenodd" d="M19.1029 0.395936C17.7749 0.249983 16.1009 0.249991 13.9654 0.25H11.5346C9.39909 0.249991 7.72513 0.249983 6.39707 0.395936C5.04179 0.544879 3.94367 0.85428 3.00609 1.54526C2.43848 1.96357 1.93931 2.4699 1.52692 3.04566C1.33892 3.30814 1.17792 3.58536 1.04055 3.88042C0.619865 4.784 0.432222 5.83177 0.340773 7.08122C0.249995 8.3215 0.249997 9.84187 0.25 11.7165V11.8034C0.249991 13.9695 0.249983 15.6675 0.39387 17.0147C0.540705 18.3894 0.845726 19.5033 1.52692 20.4543C1.93931 21.0301 2.43848 21.5364 3.00609 21.9547C3.94367 22.6457 5.04179 22.9551 6.39707 23.1041C7.72511 23.25 9.39903 23.25 11.5345 23.25H13.9654C16.1009 23.25 17.7749 23.25 19.1029 23.1041C20.4582 22.9551 21.5563 22.6457 22.4939 21.9547C23.0615 21.5364 23.5607 21.0301 23.9731 20.4543C24.6543 19.5033 24.9593 18.3894 25.1061 17.0147C25.25 15.6676 25.25 13.9696 25.25 11.8035V11.7157C25.25 9.82829 25.25 8.29983 25.1573 7.05451C25.0638 5.79956 24.8719 4.74831 24.4414 3.84208C24.308 3.56122 24.1529 3.29666 23.9731 3.04566C23.5607 2.4699 23.0615 1.96357 22.4939 1.54526C21.5563 0.85428 20.4582 0.544879 19.1029 0.395936ZM4.03129 2.97659C4.622 2.54126 5.37806 2.28751 6.58494 2.15487C7.80813 2.02045 9.38771 2.01923 11.5872 2.01923H13.9128C16.1123 2.01923 17.6919 2.02045 18.9151 2.15487C20.1219 2.28751 20.878 2.54126 21.4687 2.97659C21.888 3.28564 22.2568 3.65967 22.5616 4.08498L20.3555 6.32271C18.4001 8.30621 16.9943 9.72957 15.7817 10.668C14.5892 11.5909 13.6868 11.961 12.75 11.961C11.8132 11.961 10.9108 11.5909 9.71832 10.668C8.50575 9.72957 7.09991 8.30621 5.14449 6.32271L2.93844 4.08498C3.24316 3.65967 3.61196 3.28564 4.03129 2.97659ZM23.2585 5.88013C23.3287 6.25784 23.3809 6.68871 23.418 7.18779C23.5052 8.35889 23.5058 9.82133 23.5058 11.75C23.5058 13.9811 23.5046 15.5833 23.3721 16.8241C23.2413 18.0483 22.9912 18.8152 22.562 19.4144C22.2572 19.84 21.8882 20.2142 21.4687 20.5234C20.878 20.9587 20.1219 21.2125 18.9151 21.3451C17.6919 21.4796 16.1123 21.4808 13.9128 21.4808H11.5872C9.38771 21.4808 7.80813 21.4796 6.58494 21.3451C5.37806 21.2125 4.622 20.9587 4.03129 20.5234C3.61176 20.2142 3.24281 19.84 2.938 19.4144C2.50883 18.8152 2.25866 18.0483 2.12791 16.8241C1.99538 15.5833 1.99419 13.9811 1.99419 11.75C1.99419 9.83504 1.99473 8.37954 2.08017 7.21221C2.11746 6.70279 2.17013 6.26403 2.24153 5.88013L3.95834 7.6216C5.85633 9.54686 7.34374 11.0557 8.66033 12.0746C10.0079 13.1175 11.2785 13.7303 12.75 13.7303C14.2215 13.7303 15.4921 13.1175 16.8397 12.0746C18.1562 11.0557 19.6437 9.54688 21.5416 7.62162L23.2585 5.88013Z" fill="#2E180F" stroke="#2E180F" stroke-width="0.5"/>
</svg>
