<svg width="625" height="74" viewBox="0 0 625 74" fill="none" xmlns="http://www.w3.org/2000/svg">
<g clip-path="url(#clip0_198_13)">
<path d="M620.379 43.3027C620.605 43.3027 620.914 43.9928 621.298 44.9158C621.758 45.98 621.992 46.2877 623.604 47.2106C624.139 47.5099 624.373 47.7427 624.373 48.1252C624.373 48.358 624.298 48.358 623.989 48.5077C621.916 49.2726 621.833 49.4223 620.68 52.3324C620.605 52.4821 620.454 52.7149 620.145 52.7149C619.686 52.7149 619.226 52.0248 618.148 50.0376C617.839 49.3475 617.221 49.0398 616.151 48.5825C615.608 48.358 615.299 47.9755 615.299 47.6679C615.299 47.3603 616.068 46.9778 616.611 46.745C618.148 46.138 618.374 45.98 619.301 44.3753C619.686 43.6104 619.836 43.3027 620.379 43.3027Z" fill="#9C0000"/>
<path d="M601.42 22.8066C603.576 22.8066 605.723 23.9541 607.035 25.1763C608.339 26.4734 609.341 28.0864 609.876 30.2233C610.795 29.8408 612.032 29.4583 612.333 29.6163C612.642 29.9156 612.642 30.2233 612.567 30.4561C612.258 31.1462 611.564 31.7532 611.104 31.9111C606.342 33.0586 597.042 34.7381 593.808 35.5779C593.499 35.6527 593.349 36.0352 593.349 37.0329C593.499 45.4473 597.577 48.5819 602.114 48.5819C606.342 48.5819 609.032 47.3597 611.263 45.0648C611.489 44.832 611.723 44.832 611.723 45.0648C611.723 45.755 611.564 46.5199 610.954 46.9772C608.03 49.5797 604.88 51.0347 602.498 51.8745C601.496 52.1821 600.576 52.257 599.808 52.257C595.037 52.257 591.887 49.1224 590.967 48.1994C589.814 46.9772 587.817 43.6846 587.817 39.0201C587.817 32.6761 591.277 27.9284 595.271 25.1015C596.958 23.8792 599.348 22.8066 601.42 22.8066ZM604.88 30.9882C604.88 28.3109 601.955 24.719 598.964 24.719C598.345 24.719 597.727 24.8687 597.192 25.326C594.961 27.0138 593.583 30.7637 593.583 34.3556C597.426 33.5907 600.652 32.6761 604.186 31.7532C604.646 31.6783 604.88 31.4455 604.88 30.9882Z" fill="#2E180F"/>
<path d="M572.526 22.1914C574.214 22.1914 576.37 22.9564 577.598 23.7213C578.058 24.0289 578.902 24.3366 579.136 24.2617C580.364 24.1786 583.898 23.1143 585.511 23.1143C586.129 23.1143 586.514 23.4968 586.664 23.9541C586.898 24.2617 586.973 25.7916 586.973 26.3238C586.973 26.4734 586.589 26.939 585.745 27.0139C584.901 27.0139 583.748 26.939 579.904 26.7062C581.367 28.7683 582.21 31.5287 582.21 33.9732C582.21 39.1781 578.826 43.535 572.911 46.1375C570.061 47.4346 568.449 48.0498 566.677 49.1972C566.218 49.4217 565.992 49.6546 565.992 49.9622C565.992 51.7166 567.755 52.4067 569.836 52.4067C570.604 52.4067 575.367 52.257 576.061 52.257C579.211 52.257 582.21 52.6395 584.667 54.477C585.82 55.3168 586.823 57.3788 586.823 59.4492C586.823 62.1265 586.129 63.3487 584.057 65.9512C580.289 70.308 576.445 71.9876 574.523 72.6777C572.911 73.293 569.677 73.7503 567.755 73.7503C559.684 73.7503 556.918 69.7759 556.918 66.633C556.918 63.8808 557.687 62.5838 559.224 61.4363C561.296 59.8316 562.759 58.759 565.449 57.1543C562.374 55.6244 560.452 54.3939 560.452 52.4067C560.452 51.7997 560.528 51.4921 560.996 50.9516C561.681 50.1867 564.914 48.582 568.833 46.7444C565.758 46.2123 563.912 45.1397 562.149 43.6098C559.993 41.7723 558.765 38.7125 558.765 35.7359C558.765 31.1462 560.995 28.0865 564.68 25.4092C566.986 23.7213 569.836 22.1914 572.526 22.1914ZM577.824 36.8833C577.824 33.6656 577.055 30.6058 575.676 28.3858C574.598 26.6314 572.367 24.8687 569.527 24.7939C567.68 24.7939 566.527 25.2512 565.449 26.2489C564.371 27.3215 563.527 29.0759 563.527 32.3685C563.527 36.268 564.914 39.7851 566.836 41.6975C569.368 44.1503 571.29 44.5328 572.526 44.5328C574.674 44.5328 577.824 42.3876 577.824 36.8833ZM571.064 70.5408C574.523 70.5408 577.748 69.9256 580.748 67.6307C582.436 66.4085 583.13 64.571 583.13 62.351C583.13 60.979 582.979 59.4492 581.367 58.3766C579.904 57.3788 577.824 56.9215 575.058 56.9215C572.367 56.9215 568.833 57.0712 566.761 57.7613C565.909 58.0689 565.223 58.4514 563.912 59.6736C562.065 61.4363 561.455 63.4235 561.455 64.8786C561.455 66.791 563.143 70.5408 571.064 70.5408Z" fill="#2E180F"/>
<path d="M536.414 51.5673L536.639 51.0351C538.72 49.8877 539.104 49.5053 539.255 47.8922C539.413 46.4455 539.413 42.388 539.413 38.5632V31.1466C539.413 29.0763 539.104 28.6938 537.408 27.7792C536.723 27.3967 536.564 27.1639 536.564 26.9394C539.179 25.634 541.335 24.4118 543.641 22.7322C544.026 22.4246 544.176 22.2666 544.41 22.2666C544.56 22.2666 544.636 22.6491 544.636 23.1147C544.485 25.1767 544.251 28.1617 544.335 29.6915C545.563 29.0763 549.557 25.634 551.554 24.0293C552.248 23.414 552.866 23.1147 553.325 23.1147C555.097 23.1147 556.709 24.7194 556.709 26.0165C556.709 26.8563 555.782 27.9289 554.863 29.0014C554.403 29.4587 554.019 29.7664 553.71 29.7664C553.401 29.7664 553.167 29.5336 552.866 29.2342C552.248 28.5441 551.019 27.854 550.092 27.854C548.638 27.854 546.173 29.6915 545.404 30.4565C544.41 31.4459 544.335 31.9864 544.335 34.356V42.0055C544.335 46.3623 544.41 47.5929 544.485 48.3578C544.636 49.2724 545.095 49.8877 546.942 49.9626L549.407 50.1122C549.791 50.1871 550.092 50.4947 550.092 50.8023L549.632 51.4925C548.02 51.4176 546.407 51.4176 544.794 51.4176C541.026 51.4176 537.258 51.8749 536.489 51.8749C536.338 51.8749 536.338 51.7169 536.414 51.5673Z" fill="#2E180F"/>
<path d="M522.301 22.8066C524.448 22.8066 526.604 23.9541 527.907 25.1763C529.211 26.4734 530.214 28.0864 530.757 30.2233C531.676 29.8408 532.904 29.4583 533.213 29.6163C533.522 29.9156 533.522 30.2233 533.439 30.4561C533.138 31.1462 532.444 31.7532 531.985 31.9111C527.214 33.0586 517.914 34.7381 514.689 35.5779C514.38 35.6527 514.221 36.0352 514.221 37.0329C514.38 45.4473 518.449 48.5819 522.986 48.5819C527.214 48.5819 529.904 47.3597 532.135 45.0648C532.369 44.832 532.595 44.832 532.595 45.0648C532.595 45.755 532.444 46.5199 531.826 46.9772C528.91 49.5797 525.752 51.0347 523.37 51.8745C522.376 52.1821 521.449 52.257 520.68 52.257C515.917 52.257 512.767 49.1224 511.84 48.1994C510.686 46.9772 508.689 43.6846 508.689 39.0201C508.689 32.6761 512.149 27.9284 516.143 25.1015C517.839 23.8792 520.22 22.8066 522.301 22.8066ZM525.752 30.9882C525.752 28.3109 522.836 24.719 519.836 24.719C519.218 24.719 518.608 24.8687 518.064 25.326C515.842 27.0138 514.455 30.7637 514.455 34.3556C518.298 33.5907 521.524 32.6761 525.066 31.7532C525.526 31.6783 525.752 31.4455 525.752 30.9882Z" fill="#2E180F"/>
<path d="M501.154 7.58301C502.382 7.58301 503.46 8.73042 503.46 10.2603C503.46 12.0978 502.073 13.2453 500.694 13.2453C499.382 13.2453 498.079 12.2475 498.079 10.6428C498.079 8.58076 499.842 7.58301 501.154 7.58301ZM496.926 36.4181L496.692 28.0037C496.616 27.7044 495.923 27.4715 494.001 26.6318C493.776 26.5569 493.776 26.399 493.776 26.1745C493.851 26.0165 494.001 25.9417 494.31 25.792C496.466 25.1019 498.923 23.9545 501.847 22.4994C501.997 22.4246 502.148 22.3497 502.231 22.3497C502.307 22.3497 502.307 22.4246 502.307 22.5742C501.997 28.0868 501.613 38.0311 501.613 42.4628C501.613 46.063 501.613 47.6677 501.688 48.8151C501.764 49.4221 501.922 49.7298 502.532 49.9626C503.919 50.345 505.072 50.5695 505.306 50.6527C505.532 50.6527 505.691 50.8772 505.607 51.0351L505.457 51.3345C505.306 51.5673 505.148 51.6421 504.838 51.6421C503.46 51.6421 501.764 51.4924 499.691 51.4924C496.616 51.4924 494.001 51.9498 493.692 51.9498C493.542 51.9498 493.391 51.8749 493.308 51.7169C493.308 51.6421 493.232 51.5673 493.232 51.4176C493.232 51.2596 493.308 51.1848 493.542 51.11C495.388 50.4199 495.998 50.0374 496.383 48.0502C496.692 46.828 497.076 41.6978 496.926 36.4181Z" fill="#2E180F"/>
<path d="M482.954 22.3496C485.419 22.3496 488.101 23.339 489.639 24.7193C489.873 24.9438 490.031 25.2514 490.031 25.6339C490.031 26.3988 489.104 27.1638 488.26 27.779C487.876 28.0035 487.107 28.0867 486.723 27.9287C486.263 27.779 485.645 27.3966 484.951 26.9393C483.263 25.7919 481.492 25.1017 479.495 25.1017C477.038 25.1017 475.267 26.3988 474.348 27.3217C472.343 29.2341 471.733 32.3687 471.733 36.4179C471.733 40.7831 473.12 44.3002 474.498 45.7552C476.963 48.3577 479.111 49.1226 481.183 49.1226C484.182 49.1226 487.567 47.2103 489.179 46.0629C489.413 45.9049 489.722 45.9049 489.722 46.1377C489.722 46.4453 489.413 47.0523 488.795 47.6676C487.951 48.4325 484.567 50.7274 482.11 51.4923C480.648 51.9496 479.111 52.1824 478.191 52.1824C475.885 52.1824 472.501 51.035 470.504 49.3471C468.808 47.9752 466.427 44.4498 466.427 39.6357C466.427 32.5932 469.502 29.8411 470.73 28.6188C472.267 27.0889 475.576 25.0269 477.189 24.1788C479.111 23.1894 481.032 22.3496 482.954 22.3496Z" fill="#2E180F"/>
<path d="M431.902 51.5673L431.977 51.1848C434.208 50.0374 434.901 49.5053 435.127 47.5929C435.361 45.1401 435.595 40.8581 435.595 36.4181C435.595 32.9758 435.511 30.5313 435.436 29.2342C435.436 28.1617 435.21 27.9288 432.595 26.7066C432.436 26.6318 432.436 26.5569 432.436 26.399C432.52 26.0913 432.67 25.9417 433.055 25.792C435.971 24.5614 438.82 22.807 439.43 22.4994C439.823 22.2666 439.973 22.2666 439.973 22.2666C440.207 22.2666 440.433 22.4246 440.433 22.9567C440.508 23.6468 440.357 25.5592 440.282 27.3967C440.282 27.7792 440.433 27.854 440.508 27.7792C444.042 25.792 445.738 24.7942 447.585 23.7965C448.738 23.1895 449.816 22.8819 451.044 22.8819C452.891 22.8819 454.654 23.4972 456.267 24.7942C457.888 26.0913 459.266 28.6938 459.5 31.6787C459.575 33.059 459.5 34.8882 459.5 38.2556C459.5 43.685 459.425 46.2875 459.425 48.4327C459.425 49.2724 459.801 49.8877 460.879 50.0374C461.731 50.1871 462.416 50.2702 463.26 50.345C463.494 50.4199 463.653 50.4947 463.653 50.5695C463.653 50.8023 463.494 51.11 463.26 51.4176C463.11 51.6421 463.035 51.6421 462.725 51.6421C456.5 51.6421 454.428 52.0994 452.423 52.0994C451.888 52.0994 451.738 52.0994 451.579 51.8749L451.504 51.5673C453.501 50.4199 453.96 49.5053 454.194 48.0502C454.428 46.67 454.654 43.685 454.654 34.5057C454.654 31.8284 454.194 29.8412 452.498 28.3113C451.27 27.1639 449.816 26.5569 447.735 26.5569C445.204 26.5569 442.354 27.7792 441.277 28.5441C440.583 28.9266 440.508 29.3091 440.433 30.2985C440.282 32.5933 440.282 44.608 440.433 48.2747C440.508 49.1976 440.742 49.4221 443.507 50.4199C443.817 50.6527 443.967 50.8772 443.817 51.11L443.507 51.4924H439.823C435.511 51.4924 433.439 52.0246 432.052 51.9497C431.902 51.9497 431.826 51.8749 431.902 51.5673Z" fill="#2E180F"/>
<path d="M415.14 22.6494C420.371 22.6494 428.292 27.3971 428.292 37.2665C428.292 44.4503 423.679 48.433 422.602 49.04C419.602 50.8027 416.452 52.2577 413.377 52.2577C410.762 52.2577 405.456 50.495 402.69 46.978C400.459 44.0678 399.615 40.4759 399.615 37.7238C399.615 34.8137 400.618 31.5294 402.456 29.2346C404.152 27.0894 405.23 26.1748 407.302 25.1771C409.533 24.0296 412.917 22.6494 415.14 22.6494ZM412.608 24.7198C410.837 24.7198 409.375 25.3267 408.222 26.4741C406.225 28.4696 405.381 31.3714 405.381 36.5764C405.381 41.3905 407.453 45.0656 408.99 46.8283C411.53 49.6553 414.146 50.3454 415.909 50.3454C417.062 50.3454 418.908 49.8049 419.677 49.1231C421.214 47.5101 422.827 44.758 422.827 40.0186C422.827 35.1213 421.373 29.9164 418.449 27.1642C417.145 25.942 414.99 24.7198 412.608 24.7198Z" fill="#2E180F"/>
<path d="M352.265 27.8544C352.265 22.6494 353.493 16.1474 358.49 10.4935C362.258 6.36112 367.33 4.37393 371.483 3.30135C374.708 2.46157 379.471 2.0791 382.011 2.0791C385.545 2.0791 389.389 2.84405 392.079 3.75865C392.923 4.06629 394.076 3.60899 395.154 2.91888C395.313 2.7609 395.463 2.91888 395.538 2.99371C395.697 3.06854 395.848 3.22652 395.772 3.37618C394.235 6.89326 394.16 10.5683 394.544 13.6281C394.544 13.7778 394.461 13.9357 394.235 14.0106C393.775 14.0106 393.617 13.9357 393.466 13.4701C393.157 12.173 392.697 10.2607 391.929 9.11326C391.16 8.04067 390.467 7.12607 389.238 6.28629C387.082 4.67326 384.166 3.68382 379.245 3.68382C373.095 3.68382 368.249 6.12831 364.405 10.9508C361.489 14.5427 359.258 20.5126 359.258 28.3117C359.258 36.3436 364.255 51.0355 380.473 51.0355C385.161 51.0355 389.222 49.1897 391.386 46.9031C393.048 45.1571 394.001 43.0867 394.786 41.5568C394.979 41.1827 402.071 29.5007 401.571 30.5816C402.649 31.1553 397.051 41.64 396.566 42.8706C395.655 45.1903 393.541 49.3476 392.464 50.9524C391.954 51.7256 391.62 51.7173 391.16 51.7173C389.163 51.5676 384.626 52.8647 379.245 52.8647C360.177 52.8647 352.265 39.5613 352.265 27.8544Z" fill="#2E180F"/>
<path d="M335.67 44.1502C335.67 46.3619 334.592 48.4323 331.977 50.037C329.595 51.5669 327.055 52.099 325.058 52.099C323.445 52.099 320.446 51.5669 319.368 51.4172C318.215 51.1096 317.755 51.1096 316.452 51.5669C316.377 51.5669 316.293 51.5669 316.218 51.4172C315.992 51.1844 315.992 51.0347 316.067 50.6523C316.452 48.0498 316.377 45.4473 316.143 43.1525C316.143 42.9197 316.218 42.6952 316.452 42.5372C316.527 42.5372 316.527 42.4624 316.677 42.4624C317.371 44.7572 318.449 46.6696 320.137 48.4323C321.833 50.1118 324.448 50.8768 326.136 50.8768C327.983 50.8768 330.748 49.3469 330.748 45.597C330.748 41.9302 326.136 40.4003 324.139 39.3278C322.142 38.2552 316.987 35.8107 316.987 30.9134C316.987 28.6186 317.989 26.6314 320.295 24.8687C322.142 23.4968 324.448 22.8066 326.754 22.8066C327.983 22.8066 329.286 23.0311 330.748 23.0311C331.367 23.0311 331.826 22.9563 332.135 22.8815C332.286 22.8066 332.436 22.8066 332.595 22.9563C332.745 23.1143 332.745 23.2639 332.745 23.4968C332.82 25.5588 333.205 28.0033 333.974 30.1484C334.057 30.4561 334.057 30.8386 333.748 30.8386C333.364 30.8386 333.13 30.6057 332.52 29.6163C331.283 27.3963 328.902 24.2617 325.133 24.2617C323.37 24.2617 321.448 25.4091 321.448 29.001C321.448 32.5929 324.365 33.7403 327.364 35.1954C329.211 36.1183 335.67 38.5628 335.67 44.1502Z" fill="#2E180F"/>
<path d="M293.031 51.5673L293.265 51.0351C295.337 49.8877 295.73 49.5053 295.88 47.8922C296.031 46.4455 296.031 42.388 296.031 38.5632V31.1466C296.031 29.0763 295.73 28.6938 294.034 27.7792C293.34 27.3967 293.19 27.1639 293.19 26.9394C295.805 25.634 297.953 24.4118 300.259 22.7322C300.643 22.4246 300.802 22.2666 301.028 22.2666C301.186 22.2666 301.262 22.6491 301.262 23.1147C301.111 25.1767 300.877 28.1617 300.952 29.6915C302.181 29.0763 306.183 25.634 308.18 24.0293C308.873 23.414 309.483 23.1147 309.951 23.1147C311.714 23.1147 313.327 24.7194 313.327 26.0165C313.327 26.8563 312.408 27.9289 311.489 29.0014C311.021 29.4587 310.637 29.7664 310.327 29.7664C310.027 29.7664 309.793 29.5336 309.483 29.2342C308.873 28.5441 307.645 27.854 306.718 27.854C305.255 27.854 302.799 29.6915 302.03 30.4565C301.028 31.4459 300.952 31.9864 300.952 34.356V42.0055C300.952 46.3623 301.028 47.5929 301.111 48.3578C301.262 49.2724 301.721 49.8877 303.568 49.9626L306.024 50.1122C306.409 50.1871 306.718 50.4947 306.718 50.8023L306.258 51.4925C304.646 51.4176 303.033 51.4176 301.412 51.4176C297.652 51.4176 293.883 51.8749 293.115 51.8749C292.956 51.8749 292.956 51.7169 293.031 51.5673Z" fill="#2E180F"/>
<path d="M275.66 22.6494C280.891 22.6494 288.812 27.3971 288.812 37.2665C288.812 44.4503 284.2 48.433 283.122 49.04C280.122 50.8027 276.972 52.2577 273.897 52.2577C271.282 52.2577 265.976 50.495 263.211 46.978C260.98 44.0678 260.136 40.4759 260.136 37.7238C260.136 34.8137 261.138 31.5294 262.977 29.2346C264.673 27.0894 265.751 26.1748 267.823 25.1771C270.054 24.0296 273.438 22.6494 275.66 22.6494ZM273.129 24.7198C271.357 24.7198 269.895 25.3267 268.742 26.4741C266.745 28.4696 265.901 31.3714 265.901 36.5764C265.901 41.3905 267.973 45.0656 269.511 46.8283C272.051 49.6553 274.666 50.3454 276.429 50.3454C277.582 50.3454 279.429 49.8049 280.198 49.1231C281.735 47.5101 283.348 44.758 283.348 40.0186C283.348 35.1213 281.894 29.9164 278.969 27.1642C277.666 25.942 275.51 24.7198 273.129 24.7198Z" fill="#2E180F"/>
<path d="M252.515 7.58301C253.752 7.58301 254.83 8.73042 254.83 10.2603C254.83 12.0978 253.443 13.2453 252.056 13.2453C250.752 13.2453 249.449 12.2475 249.449 10.6428C249.449 8.58076 251.212 7.58301 252.515 7.58301ZM248.287 36.4181L248.062 28.0037C247.987 27.7044 247.293 27.4715 245.371 26.6318C245.137 26.5569 245.137 26.399 245.137 26.1745C245.221 26.0165 245.371 25.9417 245.68 25.792C247.828 25.1019 250.293 23.9545 253.209 22.4994C253.368 22.4246 253.518 22.3497 253.593 22.3497C253.677 22.3497 253.677 22.4246 253.677 22.5742C253.368 28.0868 252.983 38.0311 252.983 42.4628C252.983 46.063 252.983 47.6677 253.058 48.8151C253.134 49.4221 253.292 49.7298 253.902 49.9626C255.289 50.345 256.442 50.5695 256.668 50.6527C256.902 50.6527 257.052 50.8772 256.977 51.0351L256.827 51.3345C256.668 51.5673 256.518 51.6421 256.208 51.6421C254.83 51.6421 253.134 51.4924 251.061 51.4924C247.987 51.4924 245.371 51.9498 245.062 51.9498C244.912 51.9498 244.753 51.8749 244.678 51.7169C244.678 51.6421 244.603 51.5673 244.603 51.4176C244.603 51.2596 244.678 51.1848 244.912 51.11C246.758 50.4199 247.368 50.0374 247.753 48.0502C248.062 46.828 248.446 41.6978 248.287 36.4181Z" fill="#2E180F"/>
<path d="M221.49 51.5673L221.724 51.0351C223.796 49.8877 224.181 49.5053 224.339 47.8922C224.49 46.4455 224.49 42.388 224.49 38.5632V31.1466C224.49 29.0763 224.181 28.6938 222.493 27.7792C221.799 27.3967 221.649 27.1639 221.649 26.9394C224.264 25.634 226.412 24.4118 228.718 22.7322C229.102 22.4246 229.261 22.2666 229.487 22.2666C229.645 22.2666 229.721 22.6491 229.721 23.1147C229.562 25.1767 229.336 28.1617 229.411 29.6915C230.64 29.0763 234.642 25.634 236.639 24.0293C237.332 23.414 237.942 23.1147 238.402 23.1147C240.173 23.1147 241.786 24.7194 241.786 26.0165C241.786 26.8563 240.867 27.9289 239.939 29.0014C239.48 29.4587 239.096 29.7664 238.786 29.7664C238.486 29.7664 238.252 29.5336 237.942 29.2342C237.332 28.5441 236.096 27.854 235.177 27.854C233.714 27.854 231.258 29.6915 230.489 30.4565C229.487 31.4459 229.411 31.9864 229.411 34.356V42.0055C229.411 46.3623 229.487 47.5929 229.562 48.3578C229.721 49.2724 230.18 49.8877 232.027 49.9626L234.483 50.1122C234.868 50.1871 235.177 50.4947 235.177 50.8023L234.717 51.4925C233.105 51.4176 231.484 51.4176 229.871 51.4176C226.103 51.4176 222.342 51.8749 221.574 51.8749C221.415 51.8749 221.415 51.7169 221.49 51.5673Z" fill="#2E180F"/>
<path d="M207.378 22.8066C209.534 22.8066 211.681 23.9541 212.993 25.1763C214.297 26.4734 215.299 28.0864 215.834 30.2233C216.753 29.8408 217.99 29.4583 218.291 29.6163C218.6 29.9156 218.6 30.2233 218.525 30.4561C218.216 31.1462 217.522 31.7532 217.062 31.9111C212.3 33.0586 203 34.7381 199.766 35.5779C199.457 35.6527 199.307 36.0352 199.307 37.0329C199.457 45.4473 203.535 48.5819 208.072 48.5819C212.3 48.5819 214.99 47.3597 217.221 45.0648C217.447 44.832 217.681 44.832 217.681 45.0648C217.681 45.755 217.522 46.5199 216.912 46.9772C213.988 49.5797 210.838 51.0347 208.456 51.8745C207.454 52.1821 206.534 52.257 205.766 52.257C200.995 52.257 197.845 49.1224 196.925 48.1994C195.772 46.9772 193.775 43.6846 193.775 39.0201C193.775 32.6761 197.235 27.9284 201.229 25.1015C202.916 23.8792 205.306 22.8066 207.378 22.8066ZM210.838 30.9882C210.838 28.3109 207.913 24.719 204.922 24.719C204.303 24.719 203.685 24.8687 203.15 25.326C200.919 27.0138 199.541 30.7637 199.541 34.3556C203.384 33.5907 206.61 32.6761 210.144 31.7532C210.604 31.6783 210.838 31.4455 210.838 30.9882Z" fill="#2E180F"/>
<path d="M181.894 18.2178C182.052 18.2178 182.128 18.2926 182.128 18.6002C182.128 19.5149 181.894 23.4144 181.894 24.0297C185.202 24.0297 189.272 23.6472 191.269 23.6472C191.887 23.6472 192.046 23.6472 191.962 24.1793C191.887 24.8695 191.812 25.4847 191.578 26.0917C191.352 26.5573 190.968 26.707 190.349 26.707C188.428 26.7818 185.971 26.7818 182.128 26.7818C181.894 26.7818 181.743 27.0146 181.66 27.7047C181.434 31.9868 181.509 40.0187 181.509 44.151C181.509 47.3605 183.665 49.1232 186.356 49.1232C187.968 49.1232 189.272 48.7407 190.968 47.5933C191.269 47.2856 191.503 47.2856 191.661 47.4353C191.737 47.5933 191.812 47.7429 191.812 48.0506C191.812 48.2751 191.737 48.4331 190.893 48.9652C188.353 50.6531 185.278 52.4074 182.587 52.4074C181.359 52.4074 178.969 51.8753 177.515 50.1126C176.588 48.9652 176.362 47.5933 176.513 44.6832C176.671 40.9333 176.671 30.0744 176.747 27.3971C176.822 27.0895 176.437 26.7818 176.128 26.7818C175.05 26.7818 174.206 26.7818 173.672 26.707C173.129 26.707 173.053 26.3993 173.204 26.2497C175.435 24.1793 179.512 20.2798 181.125 18.6751C181.509 18.2926 181.66 18.2178 181.894 18.2178Z" fill="#2E180F"/>
<path d="M139.129 51.5673L138.854 51.3947L139.105 51.2713L139.164 51.1869L139.129 51.0732L139.559 51.018C141.789 49.8706 142.129 49.5053 142.355 47.5929C142.589 45.1401 142.823 40.8581 142.823 36.4181C142.823 32.9758 142.739 30.5313 142.664 29.2342C142.664 28.1617 142.438 27.9288 139.823 26.7066C139.664 26.6318 139.664 26.5569 139.664 26.399C139.748 26.0913 139.898 25.9417 140.283 25.792C143.199 24.5614 146.048 22.807 146.658 22.4994C147.042 22.2666 147.201 22.2666 147.201 22.2666C147.435 22.2666 147.661 22.4246 147.661 22.9567C147.736 23.6468 147.585 25.5592 147.51 27.3967C147.51 27.7792 147.661 27.854 147.736 27.7792C151.27 25.792 152.966 24.7942 154.813 23.7965C155.966 23.1895 157.036 22.8819 158.272 22.8819C160.11 22.8819 161.882 23.4972 163.494 24.7942C165.107 26.0913 166.494 28.6938 166.728 31.6787C166.803 33.059 166.728 34.8882 166.728 38.2556C166.728 43.685 166.653 46.2875 166.653 48.4327C166.653 49.2724 167.029 49.8877 168.107 50.0374C168.951 50.1871 169.644 50.2702 170.488 50.345C170.722 50.4199 170.881 50.4947 170.881 50.5695C170.881 50.8023 170.722 51.11 170.488 51.4176C170.338 51.6421 170.262 51.6421 169.953 51.6421C163.728 51.6421 161.656 52.0994 159.651 52.0994C159.116 52.0994 158.966 52.0994 158.807 51.8749L158.732 51.5673C160.729 50.4199 161.188 49.5053 161.422 48.0502C161.656 46.67 161.882 43.685 161.882 34.5057C161.882 31.8284 161.422 29.8412 159.734 28.3113C158.498 27.1639 157.044 26.5569 154.963 26.5569C152.432 26.5569 149.582 27.7792 148.504 28.5441C147.819 28.9266 147.736 29.3091 147.661 30.2985C147.51 32.5933 147.51 44.608 147.661 48.2747C147.736 49.1976 147.97 49.4221 150.735 50.4199C151.045 50.6527 151.195 50.8772 151.045 51.11L150.735 51.4924H147.051C142.739 51.4924 140.667 52.0246 139.28 51.9497C139.129 51.9497 139.054 51.8749 139.129 51.5673Z" fill="#2E180F"/>
<path d="M136.03 3.37539L136.105 3.83269C131.643 4.83044 130.724 5.74505 130.49 7.27494C130.264 8.42235 129.955 11.6401 129.955 20.5866V32.4432C129.955 40.3976 130.108 45.3697 130.415 47.3596C130.724 48.7399 131.033 49.1223 132.103 49.6545C132.955 50.037 134.108 50.4194 135.261 50.7271C137.868 51.3291 140.489 50.7415 141.093 51.5495C140.535 52.4356 136.054 51.7688 135.177 51.7165C131.417 51.492 128.343 51.4172 126.036 51.492C123.262 51.5668 120.346 51.9493 119.034 52.0241C118.5 52.0241 118.349 51.7997 118.266 51.7165C118.19 51.4172 118.19 51.2592 118.19 51.1844C121.424 50.3446 123.262 49.5048 123.655 47.8918C123.956 46.7444 124.265 44.225 124.265 32.7509V19.7468C124.265 6.9673 124.265 5.97786 122.494 5.21291C121.499 4.67247 120.497 4.37314 119.193 4.14033C118.809 4.0655 118.734 3.90752 118.734 3.83269C118.809 3.75786 118.809 3.6082 118.884 3.52505C118.962 3.37539 119.115 3.30056 119.344 3.30056C119.887 3.22572 120.421 3.22572 121.341 3.22572C123.037 3.22572 124.415 3.45022 127.34 3.45022C130.799 3.37539 134.024 3.14258 135.261 3.14258C135.871 3.14258 135.954 3.22572 136.03 3.37539Z" fill="#2E180F"/>
<path d="M89.4604 22.2666C91.6161 22.2666 93.7635 23.414 95.0753 24.6363C96.3788 25.9333 97.3815 27.5464 97.9162 29.6832C98.8354 29.3008 100.072 28.9183 100.373 29.0763C100.682 29.3756 100.682 29.6832 100.607 29.916C100.298 30.6062 99.6041 31.2131 99.1445 31.3711C94.3818 32.5185 85.082 34.1981 81.8484 35.0378C81.5392 35.1127 81.3888 35.4951 81.3888 36.4929C81.5392 44.9073 85.6168 48.0419 90.1539 48.0419C94.3818 48.0419 97.0723 46.8196 99.3033 44.5248C99.5289 44.292 99.7628 44.292 99.7628 44.5248C99.7628 45.2149 99.6041 45.9799 98.9941 46.4372C96.0697 49.0396 92.9196 50.4947 90.5382 51.3345C89.5356 51.6421 88.6164 51.7169 87.8477 51.7169C83.0767 51.7169 79.9266 48.5823 79.0075 47.6594C77.8544 46.4372 75.8574 43.1446 75.8574 38.4801C75.8574 32.136 79.3166 27.3884 83.3106 24.5614C84.9985 23.3392 87.3882 22.2666 89.4604 22.2666ZM92.9196 30.4482C92.9196 27.7709 89.9951 24.179 87.0038 24.179C86.3855 24.179 85.7672 24.3286 85.2324 24.7859C83.0015 26.4738 81.6228 30.2237 81.6228 33.8156C85.4664 33.0506 88.6916 32.136 92.2261 31.2131C92.6856 31.1383 92.9196 30.9055 92.9196 30.4482Z" fill="#2E180F"/>
<path d="M20.6559 29.6168V21.8925C20.6559 7.81591 20.7311 5.44625 20.3467 5.13861H14.197C6.35944 5.13861 4.82201 6.21119 3.89454 6.6685C2.59106 7.43344 1.12883 9.87794 0.0509536 12.1728C-0.0994475 12.4804 -0.333405 12.4804 -0.483806 12.3307C-0.717763 12.0979 -0.868164 11.7903 -0.868164 11.4078C-0.0994475 9.72827 1.74714 5.67075 2.74146 0.241308C2.82502 0.166476 2.97542 0.166476 3.28458 0.316139C3.51018 0.474117 3.59373 0.474117 3.59373 0.781757C3.89454 2.31164 4.12849 2.76895 4.66325 2.91861C5.28157 3.30108 6.05028 3.37591 7.97208 3.37591C10.5874 3.53389 13.6622 3.53389 20.3467 3.53389C30.1145 3.53389 36.7237 3.37591 43.4834 2.99344C46.0987 2.84378 47.327 2.07884 49.7919 0.0916447C50.1011 -0.215996 50.2515 -0.215996 50.4854 0.0168132C50.6358 0.241308 50.6358 0.399285 50.6358 0.781757C50.6358 5.37142 50.3267 11.333 50.3267 19.6725V26.4822C50.3267 26.7067 50.4854 27.1723 50.7862 27.0143C52.1733 26.4074 56.7856 24.2622 58.557 23.5721C60.32 22.882 61.3227 22.5827 62.4006 22.5827C68.9346 22.5827 70.3885 28.1618 70.3885 34.0568C70.3885 36.2685 70.1629 41.3238 70.1629 46.2959C70.1629 48.7404 70.3133 49.1229 72.9286 50.2703C73.4634 50.5779 73.6221 50.5779 73.6221 50.8024V51.0352C73.6221 51.3429 73.5469 51.4177 73.0038 51.4177H68.6255C65.2415 51.4177 62.4006 51.8002 61.7822 51.8002C61.4731 51.8002 61.4731 51.7254 61.3979 51.4925C61.3227 51.268 61.3979 51.1101 61.5483 50.9604C61.7822 50.8024 62.7014 50.1955 63.5536 49.7382C64.5479 49.1229 64.8571 48.6656 65.0911 46.9029C65.4754 43.6186 65.3919 41.3986 65.3919 37.4991C65.3919 30.6146 64.1636 28.7022 62.551 27.4716C60.8631 26.2494 59.5513 26.0997 57.9386 26.0997C55.6325 26.0997 52.708 27.0892 51.0954 28.0869C50.4019 28.4694 50.1763 28.777 50.1763 30.2321V38.7961C50.1763 43.3858 50.3267 45.9134 50.6358 48.1251C50.8698 49.2725 51.1706 49.5802 54.0199 50.42C54.329 50.5031 54.4042 50.6528 54.4794 50.9604C54.4042 51.2681 54.329 51.3429 54.0951 51.3429C48.7141 51.3429 45.8731 51.3429 43.0239 51.8002C42.4891 51.875 42.18 51.875 42.1048 51.6505L41.946 51.4177C41.946 51.3429 41.8708 51.2681 41.946 51.1849C45.2548 49.0481 45.4888 48.9732 45.4888 41.1658L45.4052 10.8757C45.4052 6.59367 45.1044 5.75389 43.6422 5.52108C42.1048 5.21344 38.7959 4.98895 33.1893 4.98895H28.3431C27.19 4.98895 26.956 5.75389 26.8808 6.81816C26.7304 8.19839 26.4213 12.6384 26.4213 22.3498V30.2321C26.4213 41.2406 26.6552 44.6081 26.8056 45.9134C26.956 47.0609 27.2652 47.9755 28.0339 48.6656C29.2622 49.7382 31.9527 50.1955 34.568 50.5779C34.8772 50.6528 35.0276 50.7276 34.9524 50.9604L34.8772 51.1849C34.7268 51.4177 34.4928 51.5674 33.4901 51.5674C31.3427 51.5674 26.8056 51.3429 23.4216 51.3429C20.1963 51.3429 16.9627 51.875 14.197 51.875C13.2779 51.875 13.0439 51.7254 12.9687 51.3429V50.9604C14.0466 50.8024 15.8932 50.42 17.2719 49.8878C18.8093 49.4305 19.9624 48.7404 20.2715 46.7532C20.4219 45.9134 20.6559 40.8582 20.6559 29.6168Z" fill="#2E180F"/>
</g>
<defs>
<clipPath id="clip0_198_13">
<rect width="625" height="74" fill="white"/>
</clipPath>
</defs>
</svg>
